<svg xmlns="http://www.w3.org/2000/svg" viewBox="0 0 512 512">
  <defs>
    <linearGradient id="bg" x1="0%" y1="0%" x2="100%" y2="100%">
      <stop offset="0%" style="stop-color:#0d9488"/>
      <stop offset="100%" style="stop-color:#0f766e"/>
    </linearGradient>
  </defs>
  <rect width="512" height="512" rx="112" fill="url(#bg)"/>
  <path d="M256 96c-48 0-88 16-108 48-20 32-24 72-16 112 8 40 24 80 36 116 8 24 20 44 36 44 12 0 20-12 28-36 8-24 16-56 24-56s16 32 24 56c8 24 16 36 28 36 16 0 28-20 36-44 12-36 28-76 36-116 8-40 4-80-16-112-20-32-60-48-108-48z" fill="white" opacity="0.95"/>
  <ellipse cx="220" cy="200" rx="28" ry="40" fill="white" opacity="0.3" transform="rotate(-10 220 200)"/>
</svg>
